<svg width="116" height="40" viewBox="0 0 116 40" fill="none" xmlns="http://www.w3.org/2000/svg">
<rect x="0.5" y="0.5" width="115" height="39" rx="1.5" fill="white"/>
<rect x="0.5" y="0.5" width="115" height="39" rx="1.5" stroke="#D9D9D9"/>
<g clip-path="url(#clip0_230_22305)">
<path d="M30.4202 22.9672H21.1155L21.5827 22.0156L29.3452 22.0016C29.6077 22.0016 29.8327 21.8141 29.8796 21.5547L30.9546 15.5375C30.9827 15.3797 30.9405 15.2172 30.8374 15.0938C30.7864 15.033 30.7228 14.9841 30.6511 14.9503C30.5793 14.9166 30.501 14.8989 30.4217 14.8984L20.5467 14.8656L20.4624 14.4688C20.4092 14.2156 20.1811 14.0312 19.9217 14.0312H17.5077C17.3614 14.0312 17.2211 14.0894 17.1177 14.1928C17.0142 14.2962 16.9561 14.4365 16.9561 14.5828C16.9561 14.7291 17.0142 14.8694 17.1177 14.9728C17.2211 15.0763 17.3614 15.1344 17.5077 15.1344H19.4749L19.8436 16.8875L20.7514 21.2828L19.5827 23.1906C19.522 23.2725 19.4854 23.3698 19.4771 23.4714C19.4689 23.573 19.4892 23.675 19.5358 23.7656C19.6296 23.9516 19.8186 24.0688 20.028 24.0688H21.0092C20.8001 24.3466 20.6871 24.685 20.6874 25.0328C20.6874 25.9172 21.4061 26.6359 22.2905 26.6359C23.1749 26.6359 23.8936 25.9172 23.8936 25.0328C23.8936 24.6844 23.778 24.3453 23.5717 24.0688H26.0889C25.8797 24.3466 25.7667 24.685 25.7671 25.0328C25.7671 25.9172 26.4858 26.6359 27.3702 26.6359C28.2546 26.6359 28.9733 25.9172 28.9733 25.0328C28.9733 24.6844 28.8577 24.3453 28.6514 24.0688H30.4217C30.7249 24.0688 30.9733 23.8219 30.9733 23.5172C30.9724 23.3711 30.9137 23.2312 30.8101 23.1282C30.7065 23.0251 30.5663 22.9673 30.4202 22.9672ZM20.7764 15.9531L29.7733 15.9828L28.8921 20.9172L21.8249 20.9297L20.7764 15.9531ZM22.2905 25.5266C22.0186 25.5266 21.7967 25.3047 21.7967 25.0328C21.7967 24.7609 22.0186 24.5391 22.2905 24.5391C22.5624 24.5391 22.7842 24.7609 22.7842 25.0328C22.7842 25.1638 22.7322 25.2894 22.6396 25.3819C22.547 25.4745 22.4214 25.5266 22.2905 25.5266ZM27.3702 25.5266C27.0983 25.5266 26.8764 25.3047 26.8764 25.0328C26.8764 24.7609 27.0983 24.5391 27.3702 24.5391C27.6421 24.5391 27.8639 24.7609 27.8639 25.0328C27.8639 25.1638 27.8119 25.2894 27.7193 25.3819C27.6267 25.4745 27.5011 25.5266 27.3702 25.5266Z" fill="#8C8C8C"/>
<path d="M39.1641 13.625V25H37.6562V13.625H39.1641ZM46.1719 13.625L41.2344 19.8828H38.5625L38.3281 18.6328H40.3359L44.3047 13.625H46.1719ZM44.6562 25L40.3828 19.6875L41.2266 18.3672L46.5 25H44.6562ZM47.0469 20.8672V20.6875C47.0469 20.0781 47.1354 19.513 47.3125 18.9922C47.4896 18.4661 47.7448 18.0104 48.0781 17.625C48.4115 17.2344 48.8151 16.9323 49.2891 16.7188C49.763 16.5 50.2943 16.3906 50.8828 16.3906C51.4766 16.3906 52.0104 16.5 52.4844 16.7188C52.9635 16.9323 53.3698 17.2344 53.7031 17.625C54.0417 18.0104 54.2995 18.4661 54.4766 18.9922C54.6536 19.513 54.7422 20.0781 54.7422 20.6875V20.8672C54.7422 21.4766 54.6536 22.0417 54.4766 22.5625C54.2995 23.0833 54.0417 23.5391 53.7031 23.9297C53.3698 24.3151 52.9661 24.6172 52.4922 24.8359C52.0234 25.0495 51.4922 25.1562 50.8984 25.1562C50.3047 25.1562 49.7708 25.0495 49.2969 24.8359C48.8229 24.6172 48.4167 24.3151 48.0781 23.9297C47.7448 23.5391 47.4896 23.0833 47.3125 22.5625C47.1354 22.0417 47.0469 21.4766 47.0469 20.8672ZM48.4922 20.6875V20.8672C48.4922 21.2891 48.5417 21.6875 48.6406 22.0625C48.7396 22.4323 48.888 22.7604 49.0859 23.0469C49.2891 23.3333 49.5417 23.5599 49.8438 23.7266C50.1458 23.888 50.4974 23.9688 50.8984 23.9688C51.2943 23.9688 51.6406 23.888 51.9375 23.7266C52.2396 23.5599 52.4896 23.3333 52.6875 23.0469C52.8854 22.7604 53.0339 22.4323 53.1328 22.0625C53.237 21.6875 53.2891 21.2891 53.2891 20.8672V20.6875C53.2891 20.2708 53.237 19.8776 53.1328 19.5078C53.0339 19.1328 52.8828 18.8021 52.6797 18.5156C52.4818 18.224 52.2318 17.9948 51.9297 17.8281C51.6328 17.6615 51.2839 17.5781 50.8828 17.5781C50.487 17.5781 50.138 17.6615 49.8359 17.8281C49.5391 17.9948 49.2891 18.224 49.0859 18.5156C48.888 18.8021 48.7396 19.1328 48.6406 19.5078C48.5417 19.8776 48.4922 20.2708 48.4922 20.6875ZM58 18.1719V28.25H56.5469V16.5469H57.875L58 18.1719ZM63.6953 20.7031V20.8672C63.6953 21.4818 63.6224 22.0521 63.4766 22.5781C63.3307 23.099 63.1172 23.5521 62.8359 23.9375C62.5599 24.3229 62.2188 24.6224 61.8125 24.8359C61.4062 25.0495 60.9401 25.1562 60.4141 25.1562C59.8776 25.1562 59.4036 25.0677 58.9922 24.8906C58.5807 24.7135 58.2318 24.4557 57.9453 24.1172C57.6589 23.7786 57.4297 23.3724 57.2578 22.8984C57.0911 22.4245 56.9766 21.8906 56.9141 21.2969V20.4219C56.9766 19.7969 57.0938 19.237 57.2656 18.7422C57.4375 18.2474 57.6641 17.8255 57.9453 17.4766C58.2318 17.1224 58.5781 16.8542 58.9844 16.6719C59.3906 16.4844 59.8594 16.3906 60.3906 16.3906C60.9219 16.3906 61.3932 16.4948 61.8047 16.7031C62.2161 16.9062 62.5625 17.1979 62.8438 17.5781C63.125 17.9583 63.3359 18.4141 63.4766 18.9453C63.6224 19.4714 63.6953 20.0573 63.6953 20.7031ZM62.2422 20.8672V20.7031C62.2422 20.2812 62.1979 19.8854 62.1094 19.5156C62.0208 19.1406 61.8828 18.8125 61.6953 18.5312C61.513 18.2448 61.2786 18.0208 60.9922 17.8594C60.7057 17.6927 60.3646 17.6094 59.9688 17.6094C59.6042 17.6094 59.2865 17.6719 59.0156 17.7969C58.75 17.9219 58.5234 18.0911 58.3359 18.3047C58.1484 18.513 57.9948 18.7526 57.875 19.0234C57.7604 19.2891 57.6745 19.5651 57.6172 19.8516V21.875C57.7214 22.2396 57.8672 22.5833 58.0547 22.9062C58.2422 23.224 58.4922 23.4818 58.8047 23.6797C59.1172 23.8724 59.5104 23.9688 59.9844 23.9688C60.375 23.9688 60.7109 23.888 60.9922 23.7266C61.2786 23.5599 61.513 23.3333 61.6953 23.0469C61.8828 22.7604 62.0208 22.4323 62.1094 22.0625C62.1979 21.6875 62.2422 21.2891 62.2422 20.8672ZM68.6953 20.9609H67.1406V20.0703H68.5781C68.9792 20.0703 69.2969 20.0208 69.5312 19.9219C69.7656 19.8177 69.9323 19.6745 70.0312 19.4922C70.1302 19.3099 70.1797 19.0964 70.1797 18.8516C70.1797 18.6328 70.1224 18.4271 70.0078 18.2344C69.8984 18.0365 69.7214 17.8776 69.4766 17.7578C69.2318 17.6328 68.9036 17.5703 68.4922 17.5703C68.1589 17.5703 67.8568 17.6302 67.5859 17.75C67.3151 17.8646 67.099 18.0234 66.9375 18.2266C66.7812 18.4245 66.7031 18.6484 66.7031 18.8984H65.2578C65.2578 18.3828 65.4036 17.9401 65.6953 17.5703C65.9922 17.1953 66.3854 16.9062 66.875 16.7031C67.3698 16.5 67.9089 16.3984 68.4922 16.3984C68.9818 16.3984 69.4193 16.4531 69.8047 16.5625C70.1953 16.6667 70.526 16.8229 70.7969 17.0312C71.0677 17.2344 71.2734 17.4896 71.4141 17.7969C71.5599 18.099 71.6328 18.4505 71.6328 18.8516C71.6328 19.138 71.5651 19.4089 71.4297 19.6641C71.2943 19.9193 71.099 20.1458 70.8438 20.3438C70.5885 20.5365 70.2786 20.6875 69.9141 20.7969C69.5547 20.9062 69.1484 20.9609 68.6953 20.9609ZM67.1406 20.4141H68.6953C69.2005 20.4141 69.6458 20.4635 70.0312 20.5625C70.4167 20.6562 70.7396 20.7969 71 20.9844C71.2604 21.1719 71.4557 21.4036 71.5859 21.6797C71.7214 21.9505 71.7891 22.263 71.7891 22.6172C71.7891 23.013 71.7083 23.3698 71.5469 23.6875C71.3906 24 71.1667 24.2656 70.875 24.4844C70.5833 24.7031 70.2344 24.8698 69.8281 24.9844C69.4271 25.099 68.9818 25.1562 68.4922 25.1562C67.9453 25.1562 67.4141 25.0625 66.8984 24.875C66.3828 24.6875 65.9583 24.3984 65.625 24.0078C65.2917 23.612 65.125 23.1094 65.125 22.5H66.5703C66.5703 22.7552 66.651 22.9974 66.8125 23.2266C66.974 23.4557 67.1979 23.6406 67.4844 23.7812C67.776 23.9219 68.112 23.9922 68.4922 23.9922C68.8984 23.9922 69.237 23.9297 69.5078 23.8047C69.7786 23.6797 69.9818 23.513 70.1172 23.3047C70.2578 23.0964 70.3281 22.8698 70.3281 22.625C70.3281 22.3073 70.2656 22.0521 70.1406 21.8594C70.0156 21.6667 69.8229 21.526 69.5625 21.4375C69.3073 21.3438 68.9792 21.2969 68.5781 21.2969H67.1406V20.4141ZM75.2266 22.7109L79.125 16.5469H80.5781V25H79.125V18.8359L75.2266 25H73.7891V16.5469H75.2266V22.7109ZM88.6328 20.2109V21.3828H84.1641V20.2109H88.6328ZM84.4688 16.5469V25H83.0234V16.5469H84.4688ZM89.8047 16.5469V25H88.3516V16.5469H89.8047ZM97.1172 23.5547V19.2031C97.1172 18.8698 97.0495 18.5807 96.9141 18.3359C96.7839 18.0859 96.5859 17.8932 96.3203 17.7578C96.0547 17.6224 95.7266 17.5547 95.3359 17.5547C94.9714 17.5547 94.651 17.6172 94.375 17.7422C94.1042 17.8672 93.8906 18.0312 93.7344 18.2344C93.5833 18.4375 93.5078 18.6562 93.5078 18.8906H92.0625C92.0625 18.5885 92.1406 18.2891 92.2969 17.9922C92.4531 17.6953 92.6771 17.4271 92.9688 17.1875C93.2656 16.9427 93.6198 16.75 94.0312 16.6094C94.4479 16.4635 94.9115 16.3906 95.4219 16.3906C96.0365 16.3906 96.5781 16.4948 97.0469 16.7031C97.5208 16.9115 97.8906 17.2266 98.1562 17.6484C98.4271 18.0651 98.5625 18.5885 98.5625 19.2188V23.1562C98.5625 23.4375 98.5859 23.737 98.6328 24.0547C98.6849 24.3724 98.7604 24.6458 98.8594 24.875V25H97.3516C97.2786 24.8333 97.2214 24.612 97.1797 24.3359C97.138 24.0547 97.1172 23.7943 97.1172 23.5547ZM97.3672 19.875L97.3828 20.8906H95.9219C95.5104 20.8906 95.1432 20.9245 94.8203 20.9922C94.4974 21.0547 94.2266 21.151 94.0078 21.2812C93.7891 21.4115 93.6224 21.5755 93.5078 21.7734C93.3932 21.9661 93.3359 22.1927 93.3359 22.4531C93.3359 22.7188 93.3958 22.9609 93.5156 23.1797C93.6354 23.3984 93.8151 23.5729 94.0547 23.7031C94.2995 23.8281 94.599 23.8906 94.9531 23.8906C95.3958 23.8906 95.7865 23.7969 96.125 23.6094C96.4635 23.4219 96.7318 23.1927 96.9297 22.9219C97.1328 22.651 97.2422 22.388 97.2578 22.1328L97.875 22.8281C97.8385 23.0469 97.7396 23.2891 97.5781 23.5547C97.4167 23.8203 97.2005 24.0755 96.9297 24.3203C96.6641 24.5599 96.3464 24.7604 95.9766 24.9219C95.612 25.0781 95.2005 25.1562 94.7422 25.1562C94.1693 25.1562 93.6667 25.0443 93.2344 24.8203C92.8073 24.5964 92.474 24.2969 92.2344 23.9219C92 23.5417 91.8828 23.1172 91.8828 22.6484C91.8828 22.1953 91.9714 21.7969 92.1484 21.4531C92.3255 21.1042 92.5807 20.8151 92.9141 20.5859C93.2474 20.3516 93.6484 20.1745 94.1172 20.0547C94.5859 19.9349 95.1094 19.875 95.6875 19.875H97.3672Z" fill="#595959"/>
</g>
<defs>
<clipPath id="clip0_230_22305">
<rect width="84" height="24" fill="white" transform="translate(16 8)"/>
</clipPath>
</defs>
</svg>
