<svg width="98" height="40" viewBox="0 0 98 40" fill="none" xmlns="http://www.w3.org/2000/svg">
<rect width="98" height="40" rx="2" fill="#1890FF"/>
<g clip-path="url(#clip0_230_22239)">
<path d="M29.4143 23.9312C29.1196 23.2331 28.6919 22.5989 28.155 22.0641C27.6197 21.5277 26.9856 21.1 26.2878 20.8047C26.2815 20.8016 26.2753 20.8 26.269 20.7969C27.2425 20.0938 27.8753 18.9484 27.8753 17.6562C27.8753 15.5156 26.1409 13.7812 24.0003 13.7812C21.8597 13.7812 20.1253 15.5156 20.1253 17.6562C20.1253 18.9484 20.7581 20.0937 21.7315 20.7984C21.7253 20.8016 21.719 20.8031 21.7128 20.8062C21.0128 21.1016 20.3847 21.525 19.8456 22.0656C19.3092 22.6009 18.8815 23.235 18.5862 23.9328C18.2961 24.616 18.1396 25.3485 18.1253 26.0906C18.1249 26.1073 18.1278 26.1239 18.1339 26.1394C18.14 26.1549 18.1491 26.1691 18.1608 26.181C18.1724 26.193 18.1863 26.2025 18.2017 26.2089C18.2171 26.2154 18.2336 26.2188 18.2503 26.2188H19.1878C19.2565 26.2188 19.3112 26.1641 19.3128 26.0969C19.344 24.8906 19.8284 23.7609 20.6847 22.9047C21.5706 22.0188 22.7472 21.5312 24.0003 21.5312C25.2534 21.5312 26.43 22.0188 27.3159 22.9047C28.1722 23.7609 28.6565 24.8906 28.6878 26.0969C28.6893 26.1656 28.744 26.2188 28.8128 26.2188H29.7503C29.767 26.2188 29.7835 26.2154 29.7989 26.2089C29.8142 26.2025 29.8281 26.193 29.8398 26.181C29.8514 26.1691 29.8606 26.1549 29.8667 26.1394C29.8728 26.1239 29.8757 26.1073 29.8753 26.0906C29.8597 25.3438 29.705 24.6172 29.4143 23.9312ZM24.0003 20.3438C23.2831 20.3438 22.6081 20.0641 22.1003 19.5563C21.5925 19.0484 21.3128 18.3734 21.3128 17.6562C21.3128 16.9391 21.5925 16.2641 22.1003 15.7562C22.6081 15.2484 23.2831 14.9688 24.0003 14.9688C24.7175 14.9688 25.3925 15.2484 25.9003 15.7562C26.4081 16.2641 26.6878 16.9391 26.6878 17.6562C26.6878 18.3734 26.4081 19.0484 25.9003 19.5563C25.3925 20.0641 24.7175 20.3438 24.0003 20.3438Z" fill="white"/>
<path d="M41.7422 19.6797H38.8594L38.8438 18.4688H41.4609C41.8932 18.4688 42.2708 18.3958 42.5938 18.25C42.9167 18.1042 43.1667 17.8958 43.3438 17.625C43.526 17.349 43.6172 17.0208 43.6172 16.6406C43.6172 16.224 43.5365 15.8854 43.375 15.625C43.2188 15.3594 42.9766 15.1667 42.6484 15.0469C42.3255 14.9219 41.9141 14.8594 41.4141 14.8594H39.1953V25H37.6875V13.625H41.4141C41.9974 13.625 42.5182 13.6849 42.9766 13.8047C43.4349 13.9193 43.8229 14.1016 44.1406 14.3516C44.4635 14.5964 44.7083 14.9089 44.875 15.2891C45.0417 15.6693 45.125 16.125 45.125 16.6562C45.125 17.125 45.0052 17.5495 44.7656 17.9297C44.526 18.3047 44.1927 18.612 43.7656 18.8516C43.3438 19.0911 42.849 19.2448 42.2812 19.3125L41.7422 19.6797ZM41.6719 25H38.2656L39.1172 23.7734H41.6719C42.151 23.7734 42.5573 23.6901 42.8906 23.5234C43.2292 23.3568 43.487 23.1224 43.6641 22.8203C43.8411 22.513 43.9297 22.151 43.9297 21.7344C43.9297 21.3125 43.8542 20.9479 43.7031 20.6406C43.5521 20.3333 43.3151 20.0964 42.9922 19.9297C42.6693 19.763 42.2526 19.6797 41.7422 19.6797H39.5938L39.6094 18.4688H42.5469L42.8672 18.9062C43.4141 18.9531 43.8776 19.1094 44.2578 19.375C44.638 19.6354 44.9271 19.9688 45.125 20.375C45.3281 20.7812 45.4297 21.2292 45.4297 21.7188C45.4297 22.4271 45.2734 23.026 44.9609 23.5156C44.6536 24 44.2188 24.3698 43.6562 24.625C43.0938 24.875 42.4323 25 41.6719 25ZM47.0547 20.8672V20.6875C47.0547 20.0781 47.1432 19.513 47.3203 18.9922C47.4974 18.4661 47.7526 18.0104 48.0859 17.625C48.4193 17.2344 48.8229 16.9323 49.2969 16.7188C49.7708 16.5 50.3021 16.3906 50.8906 16.3906C51.4844 16.3906 52.0182 16.5 52.4922 16.7188C52.9714 16.9323 53.3776 17.2344 53.7109 17.625C54.0495 18.0104 54.3073 18.4661 54.4844 18.9922C54.6615 19.513 54.75 20.0781 54.75 20.6875V20.8672C54.75 21.4766 54.6615 22.0417 54.4844 22.5625C54.3073 23.0833 54.0495 23.5391 53.7109 23.9297C53.3776 24.3151 52.974 24.6172 52.5 24.8359C52.0312 25.0495 51.5 25.1562 50.9062 25.1562C50.3125 25.1562 49.7786 25.0495 49.3047 24.8359C48.8307 24.6172 48.4245 24.3151 48.0859 23.9297C47.7526 23.5391 47.4974 23.0833 47.3203 22.5625C47.1432 22.0417 47.0547 21.4766 47.0547 20.8672ZM48.5 20.6875V20.8672C48.5 21.2891 48.5495 21.6875 48.6484 22.0625C48.7474 22.4323 48.8958 22.7604 49.0938 23.0469C49.2969 23.3333 49.5495 23.5599 49.8516 23.7266C50.1536 23.888 50.5052 23.9688 50.9062 23.9688C51.3021 23.9688 51.6484 23.888 51.9453 23.7266C52.2474 23.5599 52.4974 23.3333 52.6953 23.0469C52.8932 22.7604 53.0417 22.4323 53.1406 22.0625C53.2448 21.6875 53.2969 21.2891 53.2969 20.8672V20.6875C53.2969 20.2708 53.2448 19.8776 53.1406 19.5078C53.0417 19.1328 52.8906 18.8021 52.6875 18.5156C52.4896 18.224 52.2396 17.9948 51.9375 17.8281C51.6406 17.6615 51.2917 17.5781 50.8906 17.5781C50.4948 17.5781 50.1458 17.6615 49.8438 17.8281C49.5469 17.9948 49.2969 18.224 49.0938 18.5156C48.8958 18.8021 48.7474 19.1328 48.6484 19.5078C48.5495 19.8776 48.5 20.2708 48.5 20.6875ZM58.125 22.7109L62.0234 16.5469H63.4766V25H62.0234V18.8359L58.125 25H56.6875V16.5469H58.125V22.7109ZM61.2344 13.4844H62.4062C62.4062 13.8906 62.3125 14.2526 62.125 14.5703C61.9375 14.8828 61.6693 15.1276 61.3203 15.3047C60.9714 15.4818 60.5573 15.5703 60.0781 15.5703C59.3542 15.5703 58.7812 15.3776 58.3594 14.9922C57.9427 14.6016 57.7344 14.099 57.7344 13.4844H58.9062C58.9062 13.7917 58.9948 14.0625 59.1719 14.2969C59.349 14.5312 59.651 14.6484 60.0781 14.6484C60.4948 14.6484 60.7917 14.5312 60.9688 14.2969C61.1458 14.0625 61.2344 13.7917 61.2344 13.4844ZM69.2422 16.5469V25H67.7891V16.5469H69.2422ZM72.0781 16.5469V17.7188H65.0078V16.5469H72.0781ZM75.0625 22.7109L78.9609 16.5469H80.4141V25H78.9609V18.8359L75.0625 25H73.625V16.5469H75.0625V22.7109Z" fill="white"/>
</g>
<defs>
<clipPath id="clip0_230_22239">
<rect width="66" height="24" fill="white" transform="translate(16 8)"/>
</clipPath>
</defs>
</svg>
